# xmcd
#
# Track frame offsets: 
#        150
#        16693
#        28755
#        43211
#        59868
#        79198
#        96405
#        110091
#        130980
#        151436
#        163203
#        181698
#
# Disc length: 2678 seconds
#
# Revision: 0
# Processed by: cddbd v1.5.2PL0 Copyright (c) Steve Scherf et al.
# Submitted via: ExactAudioCopy v0.99pb4
#
DISCID=a50a740c
DTITLE=Bill Withers - Still Bill
DYEAR=1973
DGENRE=Soul
TTITLE0=Lonely Town, Lonely Street
TTITLE1=Let Me In Your Life
TTITLE2=Who Is He (And What Is He To You)?
TTITLE3=Use Me
TTITLE4=Lean On Me
TTITLE5=Kissing My Love
TTITLE6=I Don't Know
TTITLE7=Another Day To Run
TTITLE8=I Don't Want You On My Mind
TTITLE9=Take It All In And Check It All Out
TTITLE10=Lonely Town, Lonely Street (Live At Carnegie Hall)
TTITLE11=Let Me In Your Life (Live At Carnegie Hall)
EXTD=
EXTT0=
EXTT1=
EXTT2=
EXTT3=
EXTT4=
EXTT5=
EXTT6=
EXTT7=
EXTT8=
EXTT9=
EXTT10=
EXTT11=
PLAYORDER=
